<?xml version="1.0" encoding="UTF-8" standalone="no"?>
<svg
   version="1.1"
   id="Ebene_1"
   x="0px"
   y="0px"
   width="710.42737"
   height="112.61686"
   viewBox="0 0 710.42738 112.61685"
   enable-background="new 0 0 891.381 302.875"
   xml:space="preserve"
   sodipodi:docname="logo_blue.svg"
   inkscape:version="1.1.2 (0a00cf5339, 2022-02-04)"
   xmlns:inkscape="http://www.inkscape.org/namespaces/inkscape"
   xmlns:sodipodi="http://sodipodi.sourceforge.net/DTD/sodipodi-0.dtd"
   xmlns="http://www.w3.org/2000/svg"
   xmlns:svg="http://www.w3.org/2000/svg"
   xmlns:rdf="http://www.w3.org/1999/02/22-rdf-syntax-ns#"
   xmlns:cc="http://creativecommons.org/ns#"
   xmlns:dc="http://purl.org/dc/elements/1.1/"><metadata
   id="metadata4157"><rdf:RDF><cc:Work
       rdf:about=""><dc:format>image/svg+xml</dc:format><dc:type
         rdf:resource="http://purl.org/dc/dcmitype/StillImage" /></cc:Work></rdf:RDF></metadata><defs
   id="defs4155" /><sodipodi:namedview
   pagecolor="#ffffff"
   bordercolor="#666666"
   borderopacity="1"
   objecttolerance="10"
   gridtolerance="10"
   guidetolerance="10"
   inkscape:pageopacity="0"
   inkscape:pageshadow="2"
   inkscape:window-width="1820"
   inkscape:window-height="1051"
   id="namedview4153"
   showgrid="false"
   inkscape:zoom="0.62578445"
   inkscape:cx="12.783955"
   inkscape:cy="-244.49313"
   inkscape:window-x="100"
   inkscape:window-y="0"
   inkscape:window-maximized="1"
   inkscape:current-layer="g180"
   inkscape:pagecheckerboard="0"
   inkscape:document-rotation="0"
   inkscape:snap-bbox="true"
   inkscape:object-paths="true"
   inkscape:snap-center="false"><inkscape:grid
     type="xygrid"
     id="grid859"
     originx="0"
     originy="1.4210854e-14" /></sodipodi:namedview>

















<g
   id="g861"
   transform="translate(-0.5,-0.51315)"><path
     id="line4042"
     style="fill:#002864;stroke:#002864;stroke-width:2.4017;stroke-miterlimit:10"
     d="M 35.543991,60.840145 67.949997,75.855148" /><path
     id="line4044"
     style="fill:#002864;stroke:#002864;stroke-width:2.4017;stroke-miterlimit:10"
     d="M 8.2839985,71.140152 67.949997,75.855148" /><path
     id="line4046"
     style="fill:#002864;stroke:#002864;stroke-width:2.4017;stroke-miterlimit:10"
     d="m 58.934006,30.365154 13.182998,66.465" /><path
     id="line4048"
     style="fill:#002864;stroke:#002864;stroke-width:2.43951;stroke-miterlimit:10"
     d="M 58.916958,30.373323 28.292295,94.285912" /><path
     id="line4050"
     style="fill:#002864;stroke:#002864;stroke-width:2.4017;stroke-miterlimit:10"
     d="m 28.783998,93.287155 98.953992,-43.952" /><path
     id="line4052"
     style="fill:#002864;stroke:#002864;stroke-width:2.4017;stroke-miterlimit:10"
     d="M 58.934006,30.365154 127.73799,49.335155" /><path
     id="line4060"
     style="fill:#002864;stroke:#002864;stroke-width:2.60313;stroke-miterlimit:10"
     d="M 111.45447,4.0372596 127.2934,49.282295" /><path
     id="line4062"
     style="fill:#002864;stroke:#002864;stroke-width:2.36659;stroke-miterlimit:10"
     d="M 113.02834,4.2679896 67.932922,75.866554" /><path
     id="line4066"
     style="fill:#002864;stroke:#002864;stroke-width:2.4017;stroke-miterlimit:10"
     d="m 58.934006,30.365154 54.181994,66.465" /><path
     id="line4068"
     style="fill:#002864;stroke:#002864;stroke-width:2.32991;stroke-miterlimit:10"
     d="M 127.55548,49.333462 112.89791,93.922958" /><path
     id="line4074"
     style="fill:#002864;stroke:#002864;stroke-width:2.4017;stroke-miterlimit:10"
     d="M 67.949997,75.855148 113.116,96.830154" /></g>







<g
   style="fill:#002864;fill-opacity:1;stroke:none;stroke-opacity:1"
   transform="translate(-100.983,-100.929)"
   id="g4056">
	<path
   style="fill:#002864;fill-opacity:1;stroke:none;stroke-opacity:1"
   inkscape:connector-curvature="0"
   id="path4054"
   d="m 214.644,201.706 h -88.769 c -13.725,0 -24.892,-11.166 -24.892,-24.891 0,-13.726 11.167,-24.892 24.892,-24.892 1.977,0 3.922,0.233 5.821,0.695 3.414,-17.172 18.611,-29.995 36.577,-29.995 3.412,0 6.772,0.461 10.03,1.372 6.854,-13.72 20.711,-22.652 36.236,-23.066 l 0.207,7.727 c -13.656,0.363 -25.726,8.815 -30.751,21.532 l -1.413,3.577 -3.584,-1.397 c -3.431,-1.337 -7.039,-2.015 -10.726,-2.015 -15.593,0 -28.555,12.182 -29.508,27.732 l -0.351,5.719 -5.171,-2.467 c -2.343,-1.117 -4.822,-1.685 -7.369,-1.685 -9.463,0 -17.161,7.698 -17.161,17.162 0,9.463 7.698,17.161 17.161,17.161 h 88.769 v 7.731 z" />
</g><g
   id="g180"
   transform="translate(0,-1.2559737)"><path
     d="m 170.11688,1.9713675 h 8.21356 V 44.772665 h -8.21356 V 27.510898 h -14.66801 v 17.261767 h -8.20929 V 1.9713675 h 8.20929 V 19.293058 h 14.66801 z m 21.45629,0 a 1.3910422,1.3910422 0 0 0 -0.96731,0.428018 l -2.65368,2.6536751 a 1.2027164,1.2027164 0 0 0 -0.42801,0.9630291 V 40.727943 a 1.2069966,1.2069966 0 0 0 0.42801,0.967314 l 2.65368,2.653675 a 1.2069966,1.2069966 0 0 0 0.96731,0.428018 h 22.94149 v -8.213578 h -18.77692 v -9.052474 h 16.30301 v -8.21784 h -16.30301 v -9.112397 h 18.77692 V 1.9713675 Z M 226.8714,44.772665 h 19.08937 v -8.209293 h -14.9248 V 1.9713675 h -8.2093 V 40.727943 a 1.1813159,1.1813159 0 0 0 0.42802,0.967314 l 2.65368,2.653675 a 1.2069966,1.2069966 0 0 0 0.96731,0.428018 z M 307.31644,19.293058 V 1.9713675 h -8.20928 V 44.772665 h 8.20928 V 27.510898 h 14.66802 v 17.261767 h 8.21356 V 1.9713675 h -8.21356 V 19.293058 Z m 54.61875,13.268398 a 1.5451268,1.5451268 0 0 1 -0.42802,0.967314 l -2.59376,2.593751 a 1.4252833,1.4252833 0 0 1 -1.02723,0.428018 h -7.34042 a 1.2840389,1.2840389 0 0 1 -0.96731,-0.428018 l -2.59376,-2.593751 a 1.2840389,1.2840389 0 0 1 -0.42802,-0.967314 V 14.225382 a 1.2069966,1.2069966 0 0 1 0.42802,-0.967314 l 2.59376,-2.653675 a 1.5451268,1.5451268 0 0 1 0.96731,-0.428018 h 7.3661 a 1.7120519,1.7120519 0 0 1 1.02724,0.428018 l 2.59375,2.653675 a 1.4124429,1.4124429 0 0 1 0.42802,0.967314 z m 1.93033,-28.5570258 a 7.0194129,7.0194129 0 0 0 -4.82799,-2.0330627 h -9.59604 a 6.9038494,6.9038494 0 0 0 -4.88792,2.0501807 l -4.22877,4.228769 a 6.8482078,6.8482078 0 0 0 -1.99454,4.8493918 v 20.544625 a 6.8482078,6.8482078 0 0 0 1.99027,4.832263 l 4.22877,4.280123 a 6.7454846,6.7454846 0 0 0 4.89219,2.015945 h 9.59604 a 6.8482078,6.8482078 0 0 0 4.82799,-1.990256 l 4.28013,-4.280135 a 6.8482078,6.8482078 0 0 0 1.99882,-4.85794 V 13.099709 a 6.8482078,6.8482078 0 0 0 -1.99026,-4.8279886 l -4.28013,-4.2287691 z m 18.27616,40.7682348 h 19.43179 V 36.563372 H 386.30624 V 1.9713675 h -8.20929 V 40.727943 a 1.1898761,1.1898761 0 0 0 0.42802,0.967314 l 2.65796,2.653675 a 1.2069966,1.2069966 0 0 0 0.96731,0.428018 z m 28.67687,-34.592004 v 34.592004 h 8.20929 V 10.180661 h 11.34662 V 1.9713675 H 399.47621 V 10.180661 Z M 459.7704,2.3993855 a 1.4124429,1.4124429 0 0 0 -0.9716,-0.428018 h -23.96873 v 8.2092935 h 16.96643 l -17.74541,28.073368 v 2.473914 a 1.4252833,1.4252833 0 0 0 0.42801,0.967314 l 2.65796,2.653675 a 1.2069966,1.2069966 0 0 0 0.96731,0.428018 h 24.50802 V 36.563372 H 444.85414 L 462.83069,8.1261947 V 6.0118159 A 1.4295633,1.4295633 0 0 0 462.40267,5.0487868 Z M 281.76835,1.9713675 270.34897,21.749853 258.9253,1.9713675 h -7.85404 V 44.772665 h 8.20929 V 18.300067 l 7.37466,12.776182 a 1.3696415,1.3696415 0 0 0 1.1856,0.684822 h 5.02059 a 1.3653614,1.3653614 0 0 0 1.1856,-0.684822 l 7.31046,-12.656345 v 26.352761 h 8.20928 V 1.9713675 Z"
     class="cls-1"
     id="Helmholtz"
     inkscape:connector-curvature="0"
     style="fill:#002864;fill-opacity:1;stroke-width:0.428013" /><g
     aria-label="Software Consulting"
     id="text838"
     style="font-size:59.4965px;line-height:1.25;font-family:Inter;-inkscape-font-specification:'Inter, Normal';letter-spacing:0px;word-spacing:0px;stroke-width:1.48741"
     transform="translate(2.49828,-2)"><path
       d="m 170.26436,70.574357 q -0.3803,-3.211458 -3.08469,-4.986212 -2.70438,-1.774753 -6.63419,-1.774753 -2.87341,0 -5.02847,0.929633 -2.13393,0.929632 -3.33823,2.55649 -1.18317,1.626857 -1.18317,3.697403 0,1.732497 0.824,2.97905 0.84512,1.225425 2.15505,2.049418 1.30994,0.802865 2.74665,1.331065 1.4367,0.507073 2.641,0.823993 l 4.39463,1.183169 q 1.69024,0.443688 3.76078,1.225425 2.09168,0.781737 3.9932,2.13393 1.92265,1.331065 3.1692,3.422739 1.24655,2.091673 1.24655,5.134108 0,3.507251 -1.83813,6.338405 -1.81701,2.83115 -5.32426,4.50027 -3.48613,1.66911 -8.47234,1.66911 -4.64816,0 -8.04977,-1.50009 -3.38049,-1.50009 -5.32426,-4.183345 -1.92265,-2.683259 -2.17619,-6.232766 h 5.40877 q 0.21128,2.45085 1.64799,4.05658 1.45783,1.584601 3.67627,2.366338 2.23957,0.760608 4.81719,0.760608 3.00018,0 5.38765,-0.971888 2.38746,-0.993017 3.78191,-2.746643 1.39445,-1.774753 1.39445,-4.141091 0,-2.155058 -1.2043,-3.507251 -1.20429,-1.352193 -3.1692,-2.197314 -1.96491,-0.845121 -4.24673,-1.478961 l -5.32426,-1.521217 q -5.07073,-1.457834 -8.02865,-4.16222 -2.95792,-2.704386 -2.95792,-7.077886 0,-3.634019 1.9649,-6.338405 1.98604,-2.725515 5.32426,-4.225604 3.35936,-1.521217 7.50045,-1.521217 4.18335,0 7.43706,1.500089 3.25372,1.478961 5.15524,4.05658 1.92265,2.577618 2.02829,5.85246 z"
       style="fill:#002864"
       id="path38" /><path
       d="m 197.05463,103.70309 q -4.39463,0 -7.71173,-2.09167 -3.29597,-2.091678 -5.15523,-5.852465 -1.83814,-3.760787 -1.83814,-8.789256 0,-5.070724 1.83814,-8.852639 1.85926,-3.781915 5.15523,-5.873589 3.3171,-2.091674 7.71173,-2.091674 4.39463,0 7.6906,2.091674 3.3171,2.091674 5.15523,5.873589 1.85927,3.781915 1.85927,8.852639 0,5.028469 -1.85927,8.789256 -1.83813,3.760787 -5.15523,5.852465 -3.29597,2.09167 -7.6906,2.09167 z m 0,-4.47914 q 3.33823,0 5.49328,-1.71137 2.15506,-1.711369 3.19033,-4.500268 1.03528,-2.788898 1.03528,-6.042613 0,-3.253714 -1.03528,-6.063741 -1.03527,-2.810026 -3.19033,-4.542524 -2.15505,-1.732497 -5.49328,-1.732497 -3.33823,0 -5.49329,1.732497 -2.15505,1.732498 -3.19033,4.542524 -1.03527,2.810027 -1.03527,6.063741 0,3.253715 1.03527,6.042613 1.03528,2.788899 3.19033,4.500268 2.15506,1.71137 5.49329,1.71137 z"
       style="fill:#002864"
       id="path40" /><path
       d="m 233.81732,70.574357 v 4.225604 H 216.32333 V 70.574357 Z M 221.56307,103.02699 V 66.095218 q 0,-2.788899 1.30994,-4.648164 1.30994,-1.859266 3.40161,-2.788899 2.09168,-0.929632 4.41576,-0.929632 1.83814,0 3.00018,0.295792 1.16204,0.295792 1.73249,0.549328 l -1.4367,4.310116 q -0.38031,-0.126768 -1.0564,-0.31692 -0.65497,-0.190152 -1.7325,-0.190152 -2.47198,0 -3.57063,1.246553 -1.07753,1.246553 -1.07753,3.655147 v 35.748603 z"
       style="fill:#002864"
       id="path42" /><path
       d="m 254.94526,70.574357 v 4.225604 h -16.8179 v -4.225604 z m -11.9162,-7.77511 h 4.98621 v 30.931418 q 0,2.112802 0.61272,3.169203 0.63384,1.035273 1.60573,1.394449 0.99301,0.338048 2.09167,0.338048 0.82399,0 1.35219,-0.08451 0.5282,-0.10564 0.84512,-0.169024 l 1.01415,4.479139 q -0.50707,0.19015 -1.41558,0.3803 -0.9085,0.21128 -2.30295,0.21128 -2.1128,0 -4.14109,-0.9085 -2.00717,-0.90851 -3.33823,-2.76777 -1.30994,-1.859266 -1.30994,-4.69042 z"
       style="fill:#002864"
       id="path44" /><path
       d="m 269.81937,103.02699 -9.88791,-32.452633 h 5.23975 l 7.0145,24.846549 h 0.33805 l 6.92999,-24.846549 h 5.32426 l 6.84547,24.762037 h 0.33805 l 7.0145,-24.762037 h 5.23975 l -9.88791,32.452633 h -4.9017 l -7.09901,-24.931058 h -0.50708 l -7.09901,24.931058 z"
       style="fill:#002864"
       id="path46" /><path
       d="m 320.35747,103.7876 q -3.08469,0 -5.59892,-1.16204 -2.51424,-1.18317 -3.9932,-3.40161 -1.47896,-2.23957 -1.47896,-5.408773 0,-2.788898 1.09866,-4.521396 1.09866,-1.753625 2.93679,-2.746642 1.83814,-0.993017 4.05658,-1.478961 2.23957,-0.507073 4.50027,-0.802865 2.95792,-0.380304 4.79606,-0.570456 1.85927,-0.211281 2.70439,-0.697225 0.86625,-0.485944 0.86625,-1.690241 v -0.169025 q 0,-3.126946 -1.71137,-4.859444 -1.69025,-1.732497 -5.13411,-1.732497 -3.57064,0 -5.59893,1.563473 -2.02829,1.563473 -2.85228,3.338227 l -4.73268,-1.690241 q 1.26769,-2.957923 3.38049,-4.605908 2.13393,-1.669114 4.64816,-2.324082 2.53536,-0.676097 4.98621,-0.676097 1.56348,0 3.59177,0.380304 2.04941,0.359177 3.95094,1.50009 1.92265,1.140913 3.19033,3.443867 1.26768,2.302954 1.26768,6.169381 v 21.381551 h -4.98621 v -4.394625 h -0.25354 q -0.50707,1.056401 -1.69024,2.260695 -1.18317,1.2043 -3.14808,2.04942 -1.9649,0.84512 -4.79606,0.84512 z m 0.76061,-4.479138 q 2.95792,0 4.98621,-1.162041 2.04942,-1.162041 3.08469,-3.000179 1.05641,-1.838137 1.05641,-3.866427 v -4.563652 q -0.31692,0.380304 -1.39445,0.697225 -1.0564,0.295792 -2.45085,0.5282 -1.37332,0.21128 -2.68326,0.380304 -1.28881,0.147897 -2.09168,0.253537 -1.94377,0.253536 -3.63401,0.823992 -1.66912,0.549329 -2.70439,1.669114 -1.01415,1.098657 -1.01415,3.000178 0,2.598746 1.92265,3.929812 1.94378,1.309937 4.92283,1.309937 z"
       style="fill:#002864"
       id="path48" /><path
       d="M 344.35882,103.02699 V 70.574357 h 4.81719 v 4.901701 h 0.33804 q 0.88738,-2.408594 3.21146,-3.908684 2.32408,-1.500089 5.23975,-1.500089 0.54933,0 1.37332,0.02113 0.824,0.02113 1.24656,0.06338 v 5.070724 q -0.25354,-0.06338 -1.16205,-0.190152 -0.88737,-0.147896 -1.88039,-0.147896 -2.36634,0 -4.2256,0.993017 -1.83814,0.971889 -2.91567,2.704386 -1.0564,1.71137 -1.0564,3.908684 v 20.536432 z"
       style="fill:#002864"
       id="path50" /><path
       d="m 379.09319,103.70309 q -4.69042,0 -8.09203,-2.07055 -3.38048,-2.09167 -5.21862,-5.831329 -1.81701,-3.760787 -1.81701,-8.747 0,-4.986212 1.81701,-8.789255 1.83814,-3.824171 5.11298,-5.958101 3.29597,-2.155058 7.6906,-2.155058 2.53536,0 5.00734,0.845121 2.47198,0.845121 4.50027,2.746642 2.02829,1.880394 3.23258,4.986212 1.2043,3.105819 1.2043,7.648343 v 2.112802 h -25.01557 v -4.310116 h 19.94485 q 0,-2.746642 -1.09866,-4.9017 -1.07753,-2.155058 -3.08469,-3.401611 -1.98604,-1.246553 -4.69042,-1.246553 -2.97905,0 -5.15524,1.478961 -2.15506,1.457833 -3.3171,3.803043 -1.16204,2.34521 -1.16204,5.028469 v 2.87341 q 0,3.676275 1.26768,6.232765 1.28881,2.535362 3.57064,3.866427 2.28182,1.309938 5.30313,1.309938 1.96491,0 3.54951,-0.549329 1.60573,-0.570456 2.76777,-1.690241 1.16204,-1.140913 1.79588,-2.831155 l 4.81719,1.352193 q -0.76061,2.450851 -2.55649,4.310116 -1.79588,1.838136 -4.43689,2.873406 -2.641,1.01415 -5.93697,1.01415 z"
       style="fill:#002864"
       id="path52" /><path
       d="m 452.36503,73.278744 h -5.23975 q -0.46482,-2.260698 -1.62686,-3.972068 -1.14091,-1.711369 -2.7889,-2.87341 -1.62685,-1.183169 -3.61289,-1.774754 -1.98603,-0.591584 -4.14109,-0.591584 -3.92981,0 -7.12014,1.986034 -3.1692,1.986033 -5.0496,5.852461 -1.85926,3.866427 -1.85926,9.48648 0,5.620052 1.85926,9.48648 1.8804,3.866427 5.0496,5.85246 3.19033,1.986034 7.12014,1.986034 2.15506,0 4.14109,-0.591584 1.98604,-0.591585 3.61289,-1.753626 1.64799,-1.183169 2.7889,-2.894538 1.16204,-1.732498 1.62686,-3.972068 h 5.23975 q -0.59159,3.317099 -2.15506,5.936973 -1.56347,2.619875 -3.88756,4.458012 -2.32408,1.817014 -5.21862,2.767774 -2.87341,0.95076 -6.14825,0.95076 -5.53554,0 -9.84566,-2.70439 -4.31011,-2.704385 -6.78209,-7.690597 -2.47198,-4.986213 -2.47198,-11.83169 0,-6.845478 2.47198,-11.83169 2.47198,-4.986213 6.78209,-7.690599 4.31012,-2.704386 9.84566,-2.704386 3.27484,0 6.14825,0.950761 2.89454,0.95076 5.21862,2.788898 2.32409,1.81701 3.88756,4.436884 1.56347,2.598746 2.15506,5.936973 z"
       style="fill:#002864"
       id="path54" /><path
       d="m 473.32398,103.70309 q -4.39463,0 -7.71173,-2.09167 -3.29597,-2.091678 -5.15523,-5.852465 -1.83814,-3.760787 -1.83814,-8.789256 0,-5.070724 1.83814,-8.852639 1.85926,-3.781915 5.15523,-5.873589 3.3171,-2.091674 7.71173,-2.091674 4.39463,0 7.6906,2.091674 3.3171,2.091674 5.15524,5.873589 1.85926,3.781915 1.85926,8.852639 0,5.028469 -1.85926,8.789256 -1.83814,3.760787 -5.15524,5.852465 -3.29597,2.09167 -7.6906,2.09167 z m 0,-4.47914 q 3.33823,0 5.49329,-1.71137 2.15505,-1.711369 3.19033,-4.500268 1.03527,-2.788898 1.03527,-6.042613 0,-3.253714 -1.03527,-6.063741 -1.03528,-2.810026 -3.19033,-4.542524 -2.15506,-1.732497 -5.49329,-1.732497 -3.33823,0 -5.49328,1.732497 -2.15506,1.732498 -3.19033,4.542524 -1.03528,2.810027 -1.03528,6.063741 0,3.253715 1.03528,6.042613 1.03527,2.788899 3.19033,4.500268 2.15505,1.71137 5.49328,1.71137 z"
       style="fill:#002864"
       id="path56" /><path
       d="m 500.62131,83.504704 v 19.522286 h -4.98622 V 70.574357 h 4.81719 v 5.070725 h 0.42256 q 1.14091,-2.471978 3.465,-3.972068 2.32408,-1.521217 6.00035,-1.521217 3.29597,0 5.76795,1.352193 2.47198,1.331065 3.8453,4.05658 1.37332,2.704386 1.37332,6.845477 v 20.620943 h -4.98621 V 82.744096 q 0,-3.824172 -1.98603,-5.958101 -1.98604,-2.155058 -5.45103,-2.155058 -2.38747,0 -4.26786,1.035273 -1.85927,1.035273 -2.9368,3.021306 -1.07752,1.986034 -1.07752,4.817188 z"
       style="fill:#002864"
       id="path58" /><path
       d="m 553.44129,77.842396 -4.47914,1.267681 q -0.42256,-1.119785 -1.24656,-2.176186 -0.80286,-1.077529 -2.19731,-1.774754 -1.39445,-0.697224 -3.57064,-0.697224 -2.97905,0 -4.96508,1.373321 -1.96491,1.352193 -1.96491,3.443867 0,1.859265 1.3522,2.936794 1.35219,1.077529 4.2256,1.795882 l 4.81719,1.183169 q 4.35237,1.056401 6.4863,3.232587 2.13393,2.155057 2.13393,5.556668 0,2.788899 -1.60573,4.986212 -1.5846,2.197317 -4.43688,3.464997 -2.85229,1.26768 -6.6342,1.26768 -4.96508,0 -8.2188,-2.15506 -3.25371,-2.155056 -4.11996,-6.296148 l 4.73267,-1.183169 q 0.6761,2.619874 2.55649,3.929812 1.90152,1.309937 4.96509,1.309937 3.48612,0 5.53554,-1.478962 2.07054,-1.500089 2.07054,-3.591763 0,-1.690241 -1.18317,-2.831154 -1.18316,-1.162041 -3.63401,-1.732497 l -5.40878,-1.267682 q -4.45801,-1.0564 -6.54968,-3.274842 -2.07055,-2.23957 -2.07055,-5.598925 0,-2.746642 1.54235,-4.859444 1.56347,-2.112802 4.24673,-3.317099 2.70438,-1.204297 6.12712,-1.204297 4.81719,0 7.56383,2.112802 2.76777,2.112802 3.92982,5.577797 z"
       style="fill:#002864"
       id="path60" /><path
       d="M 582.0063,89.758598 V 70.574357 h 4.98621 v 32.452633 h -4.98621 v -5.493282 h -0.33805 q -1.14092,2.471982 -3.54951,4.204472 -2.40859,1.71137 -6.08487,1.71137 -3.04243,0 -5.40877,-1.33106 -2.36634,-1.3522 -3.71853,-4.056581 -1.3522,-2.725515 -1.3522,-6.866606 V 70.574357 h 4.98622 v 20.282898 q 0,3.549507 1.98603,5.662308 2.00716,2.112802 5.11298,2.112802 1.85927,0 3.78192,-0.950761 1.94377,-0.950761 3.25371,-2.915666 1.33107,-1.964906 1.33107,-5.00734 z"
       style="fill:#002864"
       id="path62" /><path
       d="m 601.10599,59.756812 v 43.270178 h -4.98622 V 59.756812 Z"
       style="fill:#002864"
       id="path64" /><path
       d="m 624.34675,70.574357 v 4.225604 h -16.8179 v -4.225604 z m -11.9162,-7.77511 h 4.98621 v 30.931418 q 0,2.112802 0.61272,3.169203 0.63384,1.035273 1.60573,1.394449 0.99301,0.338048 2.09167,0.338048 0.82399,0 1.35219,-0.08451 0.5282,-0.10564 0.84512,-0.169024 l 1.01415,4.479139 q -0.50707,0.19015 -1.41558,0.3803 -0.9085,0.21128 -2.30295,0.21128 -2.1128,0 -4.14109,-0.9085 -2.00717,-0.90851 -3.33823,-2.76777 -1.30994,-1.859266 -1.30994,-4.69042 z"
       style="fill:#002864"
       id="path66" /><path
       d="M 631.86828,103.02699 V 70.574357 h 4.98621 v 32.452633 z m 2.53536,-37.861405 q -1.45783,0 -2.51423,-0.993017 -1.03528,-0.993017 -1.03528,-2.387466 0,-1.394449 1.03528,-2.387466 1.0564,-0.993017 2.51423,-0.993017 1.45783,0 2.49311,0.993017 1.0564,0.993017 1.0564,2.387466 0,1.394449 -1.0564,2.387466 -1.03528,0.993017 -2.49311,0.993017 z"
       style="fill:#002864"
       id="path68" /><path
       d="m 650.96795,83.504704 v 19.522286 h -4.98621 V 70.574357 h 4.81719 v 5.070725 h 0.42256 q 1.14091,-2.471978 3.465,-3.972068 2.32408,-1.521217 6.00035,-1.521217 3.29597,0 5.76795,1.352193 2.47198,1.331065 3.8453,4.05658 1.37332,2.704386 1.37332,6.845477 V 103.02699 H 666.6872 V 82.744096 q 0,-3.824172 -1.98603,-5.958101 -1.98604,-2.155058 -5.45103,-2.155058 -2.38747,0 -4.26786,1.035273 -1.85927,1.035273 -2.9368,3.021306 -1.07753,1.986034 -1.07753,4.817188 z"
       style="fill:#002864"
       id="path70" /><path
       d="m 693.90005,115.87283 q -3.61289,0 -6.21163,-0.92964 -2.59875,-0.9085 -4.33125,-2.40859 -1.71137,-1.47896 -2.72551,-3.1692 l 3.97207,-2.7889 q 0.67609,0.88738 1.71136,2.02829 1.03528,1.16204 2.83116,2.00716 1.81701,0.86625 4.7538,0.86625 3.92981,0 6.4863,-1.90152 2.55649,-1.90152 2.55649,-5.9581 v -6.591944 h -0.42256 q -0.54932,0.887376 -1.56347,2.197314 -0.99302,1.28881 -2.87341,2.30295 -1.85927,0.99302 -5.02847,0.99302 -3.92981,0 -7.05676,-1.85927 -3.10581,-1.859261 -4.92282,-5.408768 -1.79589,-3.549507 -1.79589,-8.620231 0,-4.986212 1.75363,-8.683615 1.75363,-3.718531 4.88057,-5.746821 3.12695,-2.049418 7.22578,-2.049418 3.16921,0 5.02847,1.056401 1.8804,1.035273 2.87341,2.366338 1.01415,1.309937 1.56348,2.155058 h 0.50707 v -5.155237 h 4.81719 v 33.382273 q 0,4.18334 -1.90152,6.80322 -1.8804,2.641 -5.07073,3.86642 -3.1692,1.24656 -7.05676,1.24656 z m -0.16902,-17.832049 q 3.00018,0 5.07072,-1.373322 2.07055,-1.373321 3.14808,-3.950939 1.07753,-2.577618 1.07753,-6.169381 0,-3.507251 -1.0564,-6.190509 -1.05641,-2.683259 -3.12695,-4.204476 -2.07055,-1.521217 -5.11298,-1.521217 -3.1692,0 -5.28201,1.605729 -2.09167,1.60573 -3.14807,4.310116 -1.03527,2.704386 -1.03527,6.000357 0,3.380483 1.0564,5.979229 1.07753,2.577618 3.1692,4.056579 2.1128,1.457834 5.23975,1.457834 z"
       style="fill:#002864"
       id="path72" /></g></g><circle
   style="opacity:1;fill:#002864;fill-opacity:1;stroke:none;stroke-width:0.865527;stroke-miterlimit:2.1818;stroke-opacity:1"
   id="path850"
   cx="127.24"
   cy="48.73085"
   r="4.6789999" /><circle
   r="4.6789999"
   cy="75.364845"
   cx="67.405998"
   id="path850-9"
   style="opacity:1;fill:#002864;fill-opacity:1;stroke:none;stroke-width:0.865527;stroke-miterlimit:2.1818;stroke-opacity:1" /><circle
   style="opacity:1;fill:#002864;fill-opacity:1;stroke:none;stroke-width:0.865527;stroke-miterlimit:2.1818;stroke-opacity:1"
   id="path850-9-1"
   cx="58.693001"
   cy="30.11285"
   r="4.6789999" /></svg>
