<?xml version="1.0" encoding="UTF-8" standalone="no"?>
<!-- Created with Inkscape (http://www.inkscape.org/) -->

<svg
   width="225mm"
   height="168.26643mm"
   viewBox="0 0 224.99999 168.26643"
   version="1.1"
   id="svg1"
   xml:space="preserve"
   inkscape:version="1.3 (0e150ed6c4, 2023-07-21)"
   sodipodi:docname="summary.svg"
   xmlns:inkscape="http://www.inkscape.org/namespaces/inkscape"
   xmlns:sodipodi="http://sodipodi.sourceforge.net/DTD/sodipodi-0.dtd"
   xmlns="http://www.w3.org/2000/svg"
   xmlns:svg="http://www.w3.org/2000/svg"><sodipodi:namedview
     id="namedview1"
     pagecolor="#ffffff"
     bordercolor="#666666"
     borderopacity="1.0"
     inkscape:showpageshadow="2"
     inkscape:pageopacity="0.0"
     inkscape:pagecheckerboard="0"
     inkscape:deskcolor="#d1d1d1"
     inkscape:document-units="mm"
     inkscape:zoom="1.1590678"
     inkscape:cx="600.91394"
     inkscape:cy="186.35666"
     inkscape:window-width="1920"
     inkscape:window-height="1006"
     inkscape:window-x="1920"
     inkscape:window-y="0"
     inkscape:window-maximized="1"
     inkscape:current-layer="g7"
     showgrid="true"><inkscape:grid
       id="grid49"
       units="mm"
       originx="0"
       originy="-2.042707e-07"
       spacingx="0.25"
       spacingy="0.25"
       empcolor="#0099e5"
       empopacity="0.30196078"
       color="#0099e5"
       opacity="0.14901961"
       empspacing="5"
       dotted="false"
       gridanglex="30"
       gridanglez="30"
       visible="true" /></sodipodi:namedview><defs
     id="defs1"><inkscape:path-effect
       effect="spiro"
       id="path-effect26"
       is_visible="true"
       lpeversion="1" /><inkscape:path-effect
       effect="fillet_chamfer"
       id="path-effect49"
       is_visible="true"
       lpeversion="1"
       nodesatellites_param="F,0,0,1,0,0,0,1 @ F,0,0,1,0,0,0,1 @ F,0,0,1,0,0,0,1"
       radius="0"
       unit="px"
       method="auto"
       mode="F"
       chamfer_steps="1"
       flexible="false"
       use_knot_distance="true"
       apply_no_radius="true"
       apply_with_radius="true"
       only_selected="false"
       hide_knots="false" /><inkscape:path-effect
       effect="fillet_chamfer"
       id="path-effect46"
       is_visible="true"
       lpeversion="1"
       nodesatellites_param="F,0,0,1,0,0,0,1 @ F,0,0,1,0,0,0,1 @ F,0,0,1,0,0,0,1"
       radius="0"
       unit="px"
       method="auto"
       mode="F"
       chamfer_steps="1"
       flexible="false"
       use_knot_distance="true"
       apply_no_radius="true"
       apply_with_radius="true"
       only_selected="false"
       hide_knots="false" /><inkscape:path-effect
       effect="bspline"
       id="path-effect45"
       is_visible="true"
       lpeversion="1.3"
       weight="33.333333"
       steps="2"
       helper_size="0"
       apply_no_weight="true"
       apply_with_weight="true"
       only_selected="false"
       uniform="false" /><inkscape:path-effect
       effect="fillet_chamfer"
       id="path-effect25"
       is_visible="true"
       lpeversion="1"
       nodesatellites_param="F,0,0,1,0,0,0,1 @ F,0,0,1,0,0,0,1"
       radius="0"
       unit="px"
       method="auto"
       mode="F"
       chamfer_steps="1"
       flexible="false"
       use_knot_distance="true"
       apply_no_radius="true"
       apply_with_radius="true"
       only_selected="false"
       hide_knots="false" /><inkscape:path-effect
       effect="spiro"
       id="path-effect24"
       is_visible="true"
       lpeversion="1" /><inkscape:path-effect
       effect="spiro"
       id="path-effect23"
       is_visible="true"
       lpeversion="1" /><inkscape:path-effect
       effect="spiro"
       id="path-effect48"
       is_visible="true"
       lpeversion="1" /><inkscape:path-effect
       effect="spiro"
       id="path-effect47"
       is_visible="true"
       lpeversion="1" /><inkscape:path-effect
       effect="spiro"
       id="path-effect36"
       is_visible="true"
       lpeversion="1" /><inkscape:path-effect
       effect="spiro"
       id="path-effect30"
       is_visible="true"
       lpeversion="1" /><inkscape:path-effect
       effect="powerstroke"
       id="path-effect29"
       is_visible="true"
       lpeversion="1.3"
       scale_width="1"
       interpolator_type="CentripetalCatmullRom"
       interpolator_beta="0.75"
       start_linecap_type="round"
       end_linecap_type="round"
       offset_points="15.012507,6.8481753"
       linejoin_type="spiro"
       miter_limit="4"
       not_jump="true"
       sort_points="true"
       message="stroke-width:2;stroke-opacity:0.2;fill:#6e6e6f;stroke:#919190" /><inkscape:path-effect
       effect="simplify"
       id="path-effect28"
       is_visible="true"
       lpeversion="1.3"
       threshold="0.012"
       steps="1"
       smooth_angles="0"
       helper_size="0"
       simplify_individual_paths="false"
       simplify_just_coalesce="false"
       step="1" /><inkscape:path-effect
       effect="spiro"
       id="path-effect27"
       is_visible="true"
       lpeversion="1" /><inkscape:path-effect
       effect="bspline"
       id="path-effect45-3"
       is_visible="true"
       lpeversion="1.3"
       weight="33.333333"
       steps="2"
       helper_size="0"
       apply_no_weight="true"
       apply_with_weight="true"
       only_selected="false"
       uniform="false" /><inkscape:path-effect
       effect="fillet_chamfer"
       id="path-effect49-7"
       is_visible="true"
       lpeversion="1"
       nodesatellites_param="F,0,1,1,0,0,0,1 @ F,0,0,1,0,4.4326191,0,1 @ F,0,0,1,0,0,0,1"
       radius="0"
       unit="px"
       method="auto"
       mode="F"
       chamfer_steps="1"
       flexible="false"
       use_knot_distance="true"
       apply_no_radius="true"
       apply_with_radius="true"
       only_selected="false"
       hide_knots="false" /><inkscape:path-effect
       effect="bspline"
       id="path-effect45-3-7"
       is_visible="true"
       lpeversion="1.3"
       weight="33.333333"
       steps="2"
       helper_size="0"
       apply_no_weight="true"
       apply_with_weight="true"
       only_selected="false"
       uniform="false" /><inkscape:path-effect
       effect="fillet_chamfer"
       id="path-effect49-7-3"
       is_visible="true"
       lpeversion="1"
       nodesatellites_param="F,0,1,1,0,0,0,1 @ F,0,0,1,0,4.4326191,0,1 @ F,0,0,1,0,0,0,1"
       radius="0"
       unit="px"
       method="auto"
       mode="F"
       chamfer_steps="1"
       flexible="false"
       use_knot_distance="true"
       apply_no_radius="true"
       apply_with_radius="true"
       only_selected="false"
       hide_knots="false" /><inkscape:path-effect
       effect="bspline"
       id="path-effect45-3-8"
       is_visible="true"
       lpeversion="1.3"
       weight="33.333333"
       steps="2"
       helper_size="0"
       apply_no_weight="true"
       apply_with_weight="true"
       only_selected="false"
       uniform="false" /><inkscape:path-effect
       effect="fillet_chamfer"
       id="path-effect49-7-5"
       is_visible="true"
       lpeversion="1"
       nodesatellites_param="F,0,1,1,0,0,0,1 @ F,0,0,1,0,4.4326191,0,1 @ F,0,0,1,0,0,0,1"
       radius="0"
       unit="px"
       method="auto"
       mode="F"
       chamfer_steps="1"
       flexible="false"
       use_knot_distance="true"
       apply_no_radius="true"
       apply_with_radius="true"
       only_selected="false"
       hide_knots="false" /><inkscape:path-effect
       effect="bspline"
       id="path-effect45-3-7-4"
       is_visible="true"
       lpeversion="1.3"
       weight="33.333333"
       steps="2"
       helper_size="0"
       apply_no_weight="true"
       apply_with_weight="true"
       only_selected="false"
       uniform="false" /><inkscape:path-effect
       effect="fillet_chamfer"
       id="path-effect49-7-3-3"
       is_visible="true"
       lpeversion="1"
       nodesatellites_param="F,0,0,1,0,0,0,1 @ F,0,0,1,0,0,0,1 @ F,0,1,1,0,0,0,1"
       radius="0"
       unit="px"
       method="auto"
       mode="F"
       chamfer_steps="1"
       flexible="false"
       use_knot_distance="true"
       apply_no_radius="true"
       apply_with_radius="true"
       only_selected="false"
       hide_knots="false" /><inkscape:path-effect
       effect="spiro"
       id="path-effect26-7"
       is_visible="true"
       lpeversion="1" /><inkscape:path-effect
       effect="spiro"
       id="path-effect26-2"
       is_visible="true"
       lpeversion="1" /><inkscape:path-effect
       effect="spiro"
       id="path-effect26-0"
       is_visible="true"
       lpeversion="1" /><inkscape:path-effect
       effect="spiro"
       id="path-effect26-26"
       is_visible="true"
       lpeversion="1" /><inkscape:path-effect
       effect="spiro"
       id="path-effect26-20"
       is_visible="true"
       lpeversion="1" /><inkscape:path-effect
       effect="spiro"
       id="path-effect26-0-2"
       is_visible="true"
       lpeversion="1" /><inkscape:path-effect
       effect="spiro"
       id="path-effect26-0-2-3"
       is_visible="true"
       lpeversion="1" /><inkscape:path-effect
       effect="spiro"
       id="path-effect26-0-2-31"
       is_visible="true"
       lpeversion="1" /></defs><g
     inkscape:groupmode="layer"
     id="layer2"
     inkscape:label="Layer 2"
     style="display:none"><g
       id="g54"
       transform="translate(50.274498,-75.378456)"
       style="fill:#005aa0"
       inkscape:label="Lupe"><path
         d="m 117.22919,96.385791 c -4.43208,0 -8.03834,-3.606266 -8.03834,-8.038349 0,-4.432083 3.60626,-8.038348 8.03834,-8.038348 4.43209,0 8.03835,3.606265 8.03835,8.038348 0,4.432083 -3.60626,8.038349 -8.03835,8.038349 z m 0,-12.861356 c -2.65956,0 -4.823,2.163445 -4.823,4.823007 0,2.659563 2.16344,4.823008 4.823,4.823008 2.65957,0 4.82301,-2.163445 4.82301,-4.823008 0,-2.659562 -2.16344,-4.823007 -4.82301,-4.823007 z"
         fill="#6c63ff"
         id="path18"
         style="fill:#005aa0;stroke-width:0.264583" /><path
         d="m 129.59679,101.84857 c -0.39407,0 -0.78892,-0.14365 -1.09899,-0.43489 l -7.54459,-7.070449 c -0.64841,-0.6068 -0.68138,-1.624155 -0.0738,-2.271776 0.60602,-0.649975 1.62337,-0.682159 2.27178,-0.07379 l 7.54458,7.07045 c 0.64841,0.6068 0.68138,1.624155 0.0738,2.271775 -0.31635,0.33833 -0.74417,0.50868 -1.17278,0.50868 z"
         fill="#6c63ff"
         id="path19"
         style="fill:#005aa0;stroke-width:0.264583" /></g></g><g
     inkscape:label="Layer 1"
     inkscape:groupmode="layer"
     id="layer1"
     transform="translate(83.942679,-48.424478)"><path
       d="M 130.37873,176.99184 H 77.909754 c -4.410323,0 -7.998319,-3.588 -7.998319,-7.99832 v -52.46898 c 0,-4.41033 3.587996,-7.99832 7.998319,-7.99832 h 52.468986 c 4.41032,0 7.99832,3.58799 7.99832,7.99832 v 52.46898 c 0,4.41032 -3.588,7.99832 -7.99832,7.99832 z m -52.468976,-67.1859 c -3.710575,0 -6.718588,3.00802 -6.718588,6.71859 v 52.46899 c 0,3.71057 3.008016,6.71858 6.718588,6.71858 h 36.753226 c 12.39015,0 22.43435,-10.04419 22.43435,-22.43434 v -36.75322 c 0,-3.71058 -3.00802,-6.71859 -6.71859,-6.71859 H 77.909754 Z"
       fill="#f2f2f2"
       id="path1"
       style="fill:#e85b5b;fill-opacity:1;stroke-width:0.264583" /><path
       d="m 83.566408,115.26217 c -2.483313,0 -4.503504,2.02019 -4.503504,4.5035 v 7.04896 c 0,2.48332 2.020191,4.50351 4.503504,4.50351 h 7.048963 c 2.483313,0 4.503505,-2.02019 4.503505,-4.50351 v -7.04896 c 0,-2.48331 -2.020192,-4.5035 -4.503505,-4.5035 z"
       fill="#f2f2f2"
       id="path2"
       style="stroke-width:0.264583;fill:#777777;fill-opacity:1" /><path
       d="m 83.566408,135.10592 c -2.483313,0 -4.503504,2.02019 -4.503504,4.5035 v 7.04896 c 0,2.48332 2.020191,4.50351 4.503504,4.50351 h 7.048963 c 2.483313,0 4.503505,-2.02019 4.503505,-4.50351 v -7.04896 c 0,-2.48331 -2.020192,-4.5035 -4.503505,-4.5035 z"
       fill="#f2f2f2"
       id="path3"
       style="fill:#777777;fill-opacity:1;stroke-width:0.264583" /><path
       d="m 83.566408,154.94967 c -2.483313,0 -4.503504,2.02019 -4.503504,4.5035 v 7.04896 c 0,2.48332 2.020191,4.50351 4.503504,4.50351 h 7.048963 c 2.483313,0 4.503505,-2.02019 4.503505,-4.50351 v -7.04896 c 0,-2.48331 -2.020192,-4.5035 -4.503505,-4.5035 z"
       fill="#f2f2f2"
       id="path4"
       style="fill:#777777;fill-opacity:1;stroke-width:0.264583" /><g
       id="g17"
       transform="matrix(0.26458333,0,0,0.26458333,31.786289,80.309094)"
       inkscape:label="woman"
       style="display:inline"><path
         d="m 253.9314,-13.338535 c -34.1918,0 -62.00701,18.6150668 -62.00701,41.497568 v 64.952715 c 0,22.882522 27.81524,41.497572 62.00701,41.497572 h 97.05447 c 34.19181,0 62.00702,-18.61507 62.00702,-41.497572 V 28.159033 c 0,-22.8825207 -27.81524,-41.497568 -62.00702,-41.497568 z"
         fill="#6c63ff"
         id="path5"
         style="display:none;fill:#005aa0;stroke-width:2.36518" /><path
         d="m 323.89034,160.9186 c -11.82633,0 -21.44711,9.62079 -21.44711,21.44711 v 33.56939 c 0,11.82633 9.62079,21.44711 21.44711,21.44711 h 33.56939 c 11.82633,0 21.44711,-9.62079 21.44711,-21.44711 v -33.56939 c 0,-11.82633 -9.62079,-21.44711 -21.44711,-21.44711 z"
         fill="#6c63ff"
         id="path6"
         style="fill:#005aa0" /><g
         id="g7"
         inkscape:label="announcement"><polygon
           points="275.84229,498.80796 269.02267,498.75047 266.00379,471.83263 276.06892,471.91748 "
           fill="#a0616a"
           id="polygon6" /><path
           d="m 253.99807,509.65233 c -0.0148,1.6785 1.33828,3.06028 3.0229,3.07572 l 13.55914,0.11314 2.37372,-4.81149 0.8718,4.83603 5.11615,0.0464 -1.2919,-17.24842 -1.77998,-0.11842 -7.26029,-0.50048 -2.34232,-0.15686 -0.0411,4.88024 -10.89209,7.38777 c -0.82869,0.56298 -1.32776,1.49545 -1.33604,2.49637 z"
           fill="#2f2e41"
           id="path7" /><g
           id="text54"
           style="display:none;font-size:5.64444px;line-height:10.35px;font-family:'Corporate S';-inkscape-font-specification:'Corporate S, Normal';letter-spacing:-0.00529167px;stroke-width:0.264583"
           transform="matrix(3.6822283,-0.85207013,0.85207013,3.6822283,-120.13716,-303.53044)"
           aria-label="Let's Talk&#10;Do 9:00"><path
             style="font-weight:bold;font-size:8.46667px;font-family:Courier;-inkscape-font-specification:'Courier, Bold';text-align:center;text-anchor:middle;fill:#f7f7f7"
             d="m 62.286242,111.92619 h 2.563152 v 0.69453 h -1.008725 v 3.54707 h 1.992644 l 0.115755,-1.67845 h 0.719337 l -0.115756,2.37298 h -4.266407 v -0.69453 h 0.810286 v -3.54707 h -0.810286 z m 9.205519,3.7207 0.338998,0.64492 q -1.190626,0.68627 -2.191082,0.68627 -1.016992,0 -1.595769,-0.57878 -0.578776,-0.58705 -0.578776,-1.43041 0,-0.85162 0.578776,-1.4552 0.578777,-0.60359 1.529623,-0.60359 0.934311,0 1.471746,0.55398 0.545703,0.55397 0.545703,1.24023 0,0.28939 -0.02481,0.51263 h -3.315561 q 0.248047,1.03353 1.372527,1.03353 0.859896,0 1.86862,-0.60358 z m -3.191537,-1.12448 h 2.513542 q -0.239779,-0.8847 -1.231966,-0.8847 -0.967384,0 -1.281576,0.8847 z m 5.071403,-2.59622 H 74.1075 v 1.18235 h 1.926498 v 0.69453 H 74.1075 v 1.42214 0.0413 q 0,0.21498 0,0.32246 0.0083,0.10749 0.04134,0.26459 0.04134,0.14882 0.107487,0.22324 0.06615,0.0661 0.190169,0.12402 0.132292,0.0496 0.322461,0.0496 0.512631,0 1.389063,-0.37207 l 0.264584,-0.10749 0.28112,0.66973 q -1.141016,0.53744 -1.868621,0.53744 -0.735873,0 -1.107943,-0.38034 -0.165365,-0.17364 -0.248047,-0.42168 -0.08268,-0.24805 -0.09922,-0.43822 -0.0083,-0.19017 -0.0083,-0.51263 v -1.42214 h -0.56224 v -0.69453 h 0.56224 z m 5.617106,0 h 1.289844 l -0.190169,2.62929 h -0.909506 z m 6.700246,0.9095 0.661459,0.10749 q -0.08268,0.42995 -0.08268,0.73587 0,0.28112 0.08268,0.61185 l -0.661459,0.091 q -0.03307,-0.0579 -0.04134,-0.10749 l -0.06615,-0.19843 q -0.148828,-0.43822 -1.033529,-0.43822 -0.892969,0 -0.892969,0.47129 0,0.14883 0.08268,0.24805 0.09095,0.0992 0.28112,0.14882 0.19017,0.0496 0.314193,0.0661 0.124024,0.0165 0.37207,0.0331 0.917774,0.0579 1.149285,0.14056 0.165364,0.0496 0.289388,0.14883 0.405143,0.30593 0.405143,0.81856 0,0.53743 -0.471289,0.90123 -0.471289,0.36381 -1.207162,0.36381 -0.305924,0 -0.56224,-0.0827 -0.248047,-0.0744 -0.355534,-0.14056 -0.107487,-0.0744 -0.272851,-0.2067 l -0.09922,0.43821 -0.661459,-0.0413 q 0.08268,-0.5209 0.08268,-0.80202 0,-0.29765 -0.08268,-0.66145 l 0.661459,-0.0744 q 0.07441,0.38861 0.330729,0.62012 0.256315,0.22324 0.818555,0.22324 0.479558,0 0.768946,-0.14056 0.289388,-0.14883 0.289388,-0.41341 0,-0.12402 -0.06615,-0.19844 -0.05788,-0.0744 -0.190169,-0.10749 -0.132292,-0.0413 -0.305925,-0.0579 -0.173633,-0.0165 -0.429948,-0.0331 -0.02481,0 -0.03307,0 -0.909505,-0.0579 -1.306381,-0.28112 -0.248047,-0.14882 -0.405143,-0.39687 -0.157096,-0.25632 -0.157096,-0.53744 0,-0.56224 0.496094,-0.86816 0.496093,-0.30593 1.058333,-0.30593 0.587045,0 1.132748,0.39688 z m 7.042218,-0.9095 H 96.9728 l 0.165365,2.23242 -0.727604,0.10748 -0.115756,-1.64537 h -1.07487 v 3.54707 h 1.000456 v 0.69453 h -2.720248 v -0.69453 h 0.983919 v -3.54707 h -1.07487 l -0.107487,1.64537 -0.727604,-0.10748 z m 8.668083,2.3399 v 1.9017 h 0.72761 v 0.69453 h -1.46348 v -0.40514 q -0.711067,0.5209 -1.39733,0.5209 -0.653191,0 -1.066602,-0.39688 -0.413412,-0.39688 -0.413412,-0.91777 0,-0.21498 0.09095,-0.43822 0.09922,-0.22324 0.305924,-0.44648 0.206706,-0.23152 0.595313,-0.37208 0.396875,-0.14056 0.926042,-0.14056 0.347265,0 0.959115,0.0661 v -0.0165 q 0,-0.15709 -0.0165,-0.24804 -0.0165,-0.091 -0.091,-0.22324 -0.0661,-0.1323 -0.24804,-0.19844 -0.1819,-0.0661 -0.471293,-0.0661 -0.553972,0 -1.480014,0.38861 l -0.289388,-0.678 q 1.041797,-0.43821 1.77767,-0.43821 0.785485,0 1.165825,0.37207 0.3886,0.37207 0.3886,1.04179 z m -0.73587,1.2237 v -0.43821 q -0.65319,-0.091 -0.876432,-0.091 -0.338997,0 -0.587044,0.0661 -0.248047,0.0662 -0.372071,0.1571 -0.115755,0.0827 -0.190169,0.19844 -0.06615,0.11575 -0.08268,0.1819 -0.0083,0.0579 -0.0083,0.10748 0,0.23151 0.214974,0.40515 0.223243,0.17363 0.496094,0.17363 0.719337,0 1.405598,-0.76068 z m 2.56613,-3.96875 2.12494,-0.14883 v 4.79558 h 1.42213 v 0.69453 h -3.58014 v -0.69453 h 1.42213 v -4.02663 l -1.32291,0.0827 z m 4.5009,-0.008 1.56269,-0.14056 v 3.02618 l 1.0666,-0.66146 v -0.0165 h -0.38034 v -0.69453 h 2.09187 v 0.69453 h -0.56224 l -1.35599,0.91778 q 0.50436,0.42168 1.45521,1.52962 h 0.76894 v 0.69453 h -2.02571 v -0.69453 h 0.31419 q -0.19017,-0.21498 -0.57051,-0.58705 -0.37207,-0.38033 -0.5209,-0.51263 l -0.28112,0.21498 v 1.57923 h -1.41387 v -0.69453 h 0.678 v -4.01009 l -0.76068,0.0661 z"
             id="path23" /><path
             style="font-weight:bold;font-size:8.46667px;font-family:Courier;-inkscape-font-specification:'Courier, Bold';text-align:center;text-anchor:middle;fill:#f7f7f7"
             d="m 69.683994,123.40342 h 2.207619 q 0.644922,0 1.058333,0.12403 0.413412,0.12402 0.752409,0.55397 0.529167,0.66972 0.529167,1.71152 0,1.33119 -0.719336,2.03399 -0.537435,0.51263 -1.612305,0.51263 h -0.03307 -2.182814 v -0.69453 h 0.644923 v -3.54708 h -0.644923 z m 2.215887,0.69453 h -0.835092 v 3.54708 h 0.802019 q 0.760677,0 1.107943,-0.34727 0.479557,-0.47956 0.479557,-1.49655 0,-0.76068 -0.330729,-1.23197 -0.206706,-0.29765 -0.463021,-0.38034 -0.256315,-0.091 -0.760677,-0.091 z m 3.004345,2.2903 q 0,-0.86816 0.595313,-1.46347 0.595313,-0.59532 1.595769,-0.59532 1.016992,0 1.604037,0.60359 0.587044,0.60358 0.587044,1.4552 0,0.52917 -0.23151,0.99219 -0.231511,0.45476 -0.744141,0.76895 -0.512631,0.30592 -1.21543,0.30592 -1.016993,0 -1.604037,-0.60358 -0.587045,-0.61185 -0.587045,-1.46348 z m 1.149284,-0.94257 q -0.37207,0.3886 -0.37207,0.94257 0,0.55398 0.37207,0.95085 0.380339,0.38861 1.041798,0.38861 0.677995,0 1.041797,-0.39688 0.37207,-0.39687 0.37207,-0.94258 0,-0.5457 -0.37207,-0.93431 -0.363802,-0.39687 -1.041797,-0.39687 -0.669727,0 -1.041798,0.38861 z m 9.216764,2.9931 0.04961,-0.72761 q 0.363802,0.0165 0.603581,0.0165 h 0.01654 q 0.157097,0 0.256315,0 0.107488,-0.008 0.305925,-0.0413 0.206706,-0.0331 0.347266,-0.0909 0.148828,-0.0579 0.330729,-0.17364 0.19017,-0.12402 0.314193,-0.28938 0.132292,-0.17364 0.248047,-0.43822 0.115755,-0.27285 0.165365,-0.61185 -0.438217,0.32246 -0.975652,0.32246 -0.677995,0 -1.141016,-0.51263 -0.454753,-0.5209 -0.454753,-1.24023 0,-0.71107 0.454753,-1.21543 0.463021,-0.50437 1.149284,-0.50437 0.297657,0 0.595313,0.12403 0.297657,0.11575 0.578776,0.38034 0.289389,0.25631 0.463021,0.7524 0.173633,0.48783 0.173633,1.14102 0,0.60358 -0.190169,1.29811 -0.181901,0.68627 -0.686263,1.19063 -0.644922,0.64492 -1.943035,0.64492 h -0.02481 q -0.09095,0 -0.636654,-0.0248 z m 2.695444,-3.53054 q -0.04134,-0.62012 -0.347266,-0.92604 -0.305924,-0.31419 -0.669726,-0.31419 -0.355534,0 -0.595313,0.27285 -0.239779,0.26458 -0.239779,0.71107 0,0.40514 0.223242,0.71106 0.231511,0.29766 0.587045,0.29766 0.148828,0 0.305925,-0.0331 0.157096,-0.0413 0.380338,-0.22324 0.231511,-0.19017 0.355534,-0.4961 z m 4.3438,-0.091 q 0.314193,0 0.553972,0.20671 0.239779,0.19843 0.239779,0.51263 0,0.31419 -0.248047,0.5209 -0.248047,0.19843 -0.545704,0.19843 -0.305924,0 -0.553971,-0.19843 -0.239779,-0.20671 -0.239779,-0.5209 0,-0.30593 0.23151,-0.51263 0.239779,-0.20671 0.56224,-0.20671 z m -0.545703,2.41432 q 0.248047,-0.19843 0.545703,-0.19843 0.297657,0 0.545704,0.19843 0.248047,0.19844 0.248047,0.5209 0,0.32246 -0.248047,0.5209 -0.239779,0.19844 -0.545704,0.19844 -0.305924,0 -0.553971,-0.19844 -0.239779,-0.19844 -0.239779,-0.5209 0,-0.32246 0.248047,-0.5209 z m 4.864696,-4.10931 q 0.322461,-0.19017 0.752409,-0.19017 0.429948,0 0.752409,0.19844 0.330729,0.19017 0.504362,0.47129 0.181901,0.28112 0.289388,0.678 0.107487,0.39687 0.14056,0.7276 0.03307,0.32246 0.03307,0.67799 0,0.35554 -0.03307,0.68627 -0.0248,0.32246 -0.14056,0.7276 -0.107487,0.39688 -0.289388,0.68627 -0.173633,0.28112 -0.496094,0.47955 -0.322461,0.19017 -0.760677,0.19017 -0.537435,0 -0.901238,-0.27285 -0.363802,-0.28112 -0.529166,-0.74414 -0.165365,-0.46302 -0.231511,-0.87643 -0.05788,-0.41341 -0.05788,-0.87644 0,-0.3638 0.03307,-0.68626 0.03307,-0.33073 0.14056,-0.71933 0.107487,-0.39688 0.289389,-0.678 0.181901,-0.28939 0.504362,-0.47956 z m 0.752409,0.51263 q -0.363802,0 -0.611849,0.33073 -0.33073,0.46302 -0.33073,1.71979 0,0.339 0.03307,0.64493 0.03307,0.29765 0.115756,0.65319 0.09095,0.34726 0.289388,0.56224 0.206705,0.2067 0.504362,0.2067 0.305924,0 0.51263,-0.21497 0.206706,-0.22324 0.289388,-0.58705 0.09095,-0.37207 0.115756,-0.66145 0.03307,-0.28939 0.03307,-0.60359 0,-2.05052 -0.950847,-2.05052 z m 4.31899,-0.51263 q 0.32247,-0.19017 0.75241,-0.19017 0.42995,0 0.75241,0.19844 0.33073,0.19017 0.50436,0.47129 0.18191,0.28112 0.28939,0.678 0.10749,0.39687 0.14056,0.7276 0.0331,0.32246 0.0331,0.67799 0,0.35554 -0.0331,0.68627 -0.0248,0.32246 -0.14056,0.7276 -0.10748,0.39688 -0.28939,0.68627 -0.17363,0.28112 -0.49609,0.47955 -0.32246,0.19017 -0.76068,0.19017 -0.53743,0 -0.90123,-0.27285 -0.36381,-0.28112 -0.52917,-0.74414 -0.16537,-0.46302 -0.23151,-0.87643 -0.0579,-0.41341 -0.0579,-0.87644 0,-0.3638 0.0331,-0.68626 0.0331,-0.33073 0.14056,-0.71933 0.10749,-0.39688 0.28939,-0.678 0.1819,-0.28939 0.50436,-0.47956 z m 0.75241,0.51263 q -0.3638,0 -0.61185,0.33073 -0.33073,0.46302 -0.33073,1.71979 0,0.339 0.0331,0.64493 0.0331,0.29765 0.11575,0.65319 0.091,0.34726 0.28939,0.56224 0.20671,0.2067 0.50436,0.2067 0.30593,0 0.51263,-0.21497 0.20671,-0.22324 0.28939,-0.58705 0.091,-0.37207 0.11576,-0.66145 0.0331,-0.28939 0.0331,-0.60359 0,-2.05052 -0.95085,-2.05052 z"
             id="path24" /></g></g><g
         id="g8"><polygon
           points="310.54007,498.80796 303.72044,498.75047 300.70157,471.83263 310.76669,471.91748 "
           fill="#a0616a"
           id="polygon7" /><path
           d="m 288.69584,509.65233 c -0.0148,1.6785 1.33828,3.06028 3.0229,3.07572 l 13.55914,0.11314 2.37372,-4.81149 0.8718,4.83603 5.11615,0.0464 -1.2919,-17.24842 -1.77998,-0.11842 -7.26029,-0.50048 -2.34232,-0.15686 -0.0411,4.88024 -10.89209,7.38777 c -0.82869,0.56298 -1.32776,1.49545 -1.33604,2.49637 z"
           fill="#2f2e41"
           id="path8" /></g><path
         d="m 249.08109,281.17831 27.64346,0.87295 26.18854,5.81968 c 0,0 -2.61885,3.20082 6.11066,11.93033 0,0 11.63935,20.36886 3.49181,40.15576 l -3.49181,79.14758 c 0,0 10.18085,55.79388 2.40219,73.5511 l -10.28082,0.64255 -17.39634,-73.54982 -8.47914,-79.20944 -4.07377,77.98365 c 0,0 15.58482,53.52659 5.74359,74.77562 l -11.13465,-0.64255 -19.05157,-74.13307 c 0,0 -8.14755,-85.54922 -6.98361,-101.84432 1.16394,-16.29509 9.31148,-35.50002 9.31148,-35.50002 z"
         fill="#2f2e41"
         id="path9" /><g
         id="g11"><path
           d="m 341.91407,156.11273 c -3.77892,0.97845 -6.04918,4.83514 -5.07069,8.61407 0.44834,1.73156 1.50489,3.14028 2.87746,4.07089 l -4.1e-4,0.01 -0.53609,12.98479 9.93665,4.59846 0.7932,-19.98146 -0.0692,0.002 c 0.86159,-1.53494 1.15931,-3.38933 0.68324,-5.22793 -0.97848,-3.77893 -4.83517,-6.04911 -8.61416,-5.0706 z"
           fill="#a0616a"
           id="path10" /><path
           d="m 286.37793,202.45483 c -2.08746,-2.06912 -3.29844,-4.87434 -3.34374,-7.92486 -0.0609,-4.09228 1.98991,-7.80651 5.48559,-9.93539 4.02563,-2.45174 9.05967,-2.20364 12.82498,0.63119 l 31.20286,23.4935 5.55989,-33.84423 11.93675,3.84257 -2.84806,44.07 c -0.19948,3.08263 -1.94154,5.7983 -4.6607,7.26426 -2.71916,1.46596 -5.94507,1.42927 -8.63009,-0.0982 l -45.0929,-25.65511 c -0.90583,-0.51546 -1.7216,-1.13691 -2.43458,-1.84377 z"
           fill="#3f3d56"
           id="path11" /></g><g
         id="g13"><path
           d="m 238.79919,137.1819 c 1.9947,3.35541 0.89159,7.69261 -2.46385,9.68729 -1.5375,0.914 -3.27962,1.17053 -4.90955,0.86503 l -0.007,0.007 -8.76131,9.59852 -10.29404,-3.73037 13.50476,-14.7482 0.0477,0.0502 c 0.46883,-1.69663 1.563,-3.22314 3.19555,-4.19363 3.35544,-1.99468 7.69258,-0.89152 9.68729,2.46398 z"
           fill="#a0616a"
           id="path12" /><path
           d="m 242.58351,208.7873 -50.08512,-13.52903 c -2.98215,-0.8057 -5.29885,-3.05086 -6.19773,-6.00635 -0.89888,-2.95549 -0.22401,-6.11051 1.80467,-8.44008 l 29.00517,-33.30129 11.18221,5.67535 -19.87987,27.94879 38.69929,5.28473 c 4.66979,0.63785 8.41937,4.00591 9.55199,8.58126 0.98359,3.97296 -0.17507,8.05448 -3.09949,10.91773 -2.17991,2.13441 -5.01491,3.27394 -7.95408,3.27362 -1.00399,0 -2.02084,-0.13303 -3.02702,-0.40473 z"
           fill="#3f3d56"
           id="path13" /></g><path
         d="m 313.98891,292.82223 -70.0381,3.21276 c -1.92358,-2.92109 -1.40264,-7.31347 1.29122,-12.81367 10.17125,-20.76721 2.44654,-60.05462 -2.74985,-80.51179 -1.45798,-5.73976 2.4559,-11.44589 8.34855,-12.03515 l 6.60367,-0.66037 6.10424,-18.63399 h 21.37875 l 8.86923,10.13266 15.05189,9.14389 c -2.73972,28.22064 -14.41356,68.0706 2.2172,88.05507 3.63737,4.37087 4.66873,9.09743 2.92321,14.1106 z"
         fill="#3f3d56"
         id="path14" /><circle
         cx="271.51868"
         cy="150.9868"
         r="20.82357"
         fill="#a0616a"
         id="circle14" /><path
         d="m 295.08231,137.65762 c 2.8972,-10.56287 -28.67928,-19.62073 -34.81549,-11.11444 -0.85326,-1.20934 -4.00655,-1.9439 -5.45336,-1.57293 -1.44681,0.37097 -2.66357,1.29841 -3.85072,2.19619 -1.6323,1.2539 -3.32392,2.55231 -4.32553,4.35524 -1.00909,1.79551 -1.16487,4.24398 0.19287,5.80205 1.07584,1.23904 2.9663,7.82332 4.58375,8.14978 1.12773,0.23 2.07745,0.41549 2.89358,0.54904 0.72714,-1.06098 2.58132,-2.39375 2.44778,-3.67731 1.09807,0.7271 0.69691,2.00635 0.47552,3.31376 -0.73718,4.35363 -17.34626,38.05525 -7.83345,28.12415 0.9423,0.55647 2.10715,1.07583 3.45008,1.55065 2.27775,-3.43523 4.14747,-7.48625 5.37914,-11.7228 l 0.009,0.0783 c 0.42405,3.68168 3.11456,6.70263 6.67421,7.73388 14.27942,4.13681 25.82989,-1.93337 29.80326,-12.87997 -1.45451,-2.95297 -2.08826,-2.63223 -1.95797,-2.72004 1.81577,-1.2238 4.31135,-0.42345 5.09179,1.62242 0.2301,0.60321 0.43924,1.1182 0.62043,1.50569 2.07002,-7.40469 4.53201,-6.33593 -3.38458,-21.29362 z"
         fill="#2f2e41"
         id="path15" /><path
         d="m 285.23139,129.99395 -1.4586,-7.45697 c -0.12261,-0.62684 -0.23896,-1.30695 0.0437,-1.87973 0.36317,-0.73595 1.29668,-1.04096 2.10893,-0.92366 0.81225,0.11729 1.41978,0.85923 2.22791,1.0021 2.80975,0.49673 6.52379,-2.27858 7.53053,4.7424 0.41975,2.92732 5.09082,3.23652 6.65079,5.74883 1.55997,2.51232 1.75148,6.13862 -0.37749,8.19111 -1.70031,1.63923 -4.43095,1.82843 -6.63933,0.99107 -2.20838,-0.83736 -3.98071,-2.52874 -5.52887,-4.31237 -1.54816,-1.78363 -2.9501,-3.71374 -4.73583,-5.25948"
         fill="#2f2e41"
         id="path16" /><path
         d="m 296.19459,141.33592 c -5.69794,-0.79597 -9.5818,-2.86826 -11.54365,-6.15883 -2.5677,-4.30742 -0.84774,-9.05031 -0.77338,-9.25017 l 1.20447,0.44772 c -0.016,0.0436 -1.57626,4.38523 0.67957,8.15551 1.75478,2.9329 5.32489,4.79466 10.61057,5.53322 z"
         fill="#6c63ff"
         id="path17" /></g><g
       id="g21"
       transform="matrix(0.26458333,0,0,0.26458333,-8.4303924,80.309094)"
       style="fill:#777777;fill-opacity:1"><path
         d="m 498.55135,498.12587 c 2.06592,0.12937 3.20768,-2.43737 1.64468,-3.93333 l -0.1555,-0.61819 c 0.0205,-0.0495 0.041,-0.099 0.0618,-0.14839 2.08924,-4.9818 9.16992,-4.94742 11.24139,0.0418 1.83859,4.42817 4.17942,8.86389 4.75579,13.54594 0.25838,2.0668 0.14213,4.17236 -0.31648,6.20047 4.30807,-9.41059 6.57515,-19.68661 6.57515,-30.02077 0,-2.59652 -0.14213,-5.19301 -0.43275,-7.78295 -0.239,-2.11854 -0.56839,-4.2241 -0.99471,-6.31034 -2.30575,-11.2772 -7.29852,-22.01825 -14.50012,-30.98962 -3.46197,-1.89248 -6.34906,-4.85065 -8.09295,-8.39652 -0.62649,-1.27891 -1.11739,-2.65462 -1.34991,-4.05618 0.39398,0.0517 1.48556,-5.94866 1.18841,-6.3168 0.54906,-0.83317 1.53178,-1.24733 2.13144,-2.06034 2.98232,-4.04341 7.0912,-3.33741 9.23621,2.15727 4.58224,2.31266 4.62659,6.14806 1.81495,9.83683 -1.78878,2.34682 -2.03456,5.52233 -3.60408,8.03478 0.16151,0.20671 0.32944,0.40695 0.4909,0.61366 2.96106,3.79788 5.52208,7.88002 7.68104,12.16859 -0.61017,-4.76621 0.29067,-10.50822 1.82641,-14.20959 1.74819,-4.21732 5.02491,-7.76915 7.91045,-11.41501 3.46601,-4.37924 10.57337,-2.46806 11.18401,3.08332 0.006,0.0537 0.0117,0.10745 0.0173,0.1612 -0.4286,0.24178 -0.84849,0.49867 -1.25864,0.76992 -2.33949,1.54723 -1.53096,5.17386 1.24107,5.60174 l 0.0628,0.01 c -0.15503,1.54366 -0.41984,3.07444 -0.80734,4.57937 3.70179,14.31579 -4.29011,19.5299 -15.70147,19.76412 -0.25191,0.12916 -0.49738,0.25832 -0.74929,0.38109 1.15617,3.25525 2.07982,6.59447 2.76441,9.97891 0.61359,2.99043 1.03991,6.01317 1.27885,9.04888 0.29715,3.83006 0.27129,7.67959 -0.0517,11.50323 l 0.0194,-0.13562 c 0.82024,-4.21115 3.10671,-8.14462 6.4266,-10.87028 4.94561,-4.06264 11.93282,-5.55869 17.26826,-8.82425 2.56833,-1.57196 5.85945,0.45945 5.41121,3.43708 l -0.0218,0.14261 c -0.79443,0.32289 -1.56947,0.69755 -2.31871,1.11733 -0.4286,0.24184 -0.84848,0.49867 -1.25864,0.76992 -2.33949,1.54729 -1.53096,5.17392 1.24107,5.6018 l 0.0628,0.01 c 0.0452,0.006 0.084,0.0129 0.12911,0.0194 -1.36282,3.23581 -3.26168,6.23922 -5.63854,8.82922 -2.31463,12.49713 -12.25603,13.68282 -22.89022,10.04354 h -0.006 c -1.16259,5.06378 -2.86128,10.01127 -5.0444,14.72621 h -18.02019 c -0.0646,-0.20022 -0.12274,-0.40692 -0.18089,-0.60717 1.6664,0.10341 3.34571,0.006 4.98629,-0.29702 -1.33701,-1.64059 -2.67396,-3.29409 -4.01097,-4.93462 -0.0323,-0.0323 -0.0582,-0.0646 -0.084,-0.0969 -0.67817,-0.8396 -1.36282,-1.67283 -2.04099,-2.51246 l -3.6e-4,-10e-4 c -0.0424,-2.57755 0.26652,-5.14662 0.87876,-7.63984 l 5.7e-4,-3.5e-4 z"
         fill="#f2f2f2"
         id="path20"
         style="fill:#777777;fill-opacity:1" /><path
         d="m 0,514.26882 c 0,0.66003 0.53003,1.19 1.19006,1.19 h 550.28998 c 0.65997,0 1.19,-0.52997 1.19,-1.19 0,-0.65997 -0.53003,-1.19 -1.19,-1.19 H 1.19006 c -0.66003,0 -1.19006,0.53003 -1.19006,1.19 z"
         fill="#cccccc"
         id="path21"
         style="fill:#777777;fill-opacity:1" /></g><path
       d="m -58.283389,83.756923 h -20.79625 c -2.68023,0 -4.86304,-2.180171 -4.86304,-4.863041 v -20.79625 c 0,-2.68023 2.18017,-4.86305 4.86304,-4.86305 h 20.79625 c 2.68023,0 4.86304,2.18017 4.86304,4.86305 v 20.79625 c 0,2.68022 -2.18016,4.86304 -4.86304,4.863041 z m -20.79625,-29.990521 c -2.38919,0 -4.33387,1.944681 -4.33387,4.33387 v 20.796251 c 0,2.38919 1.94468,4.333879 4.33387,4.333879 h 20.79625 c 2.38919,0 4.33388,-1.94469 4.33388,-4.333879 v -20.79625 c 0,-2.38919 -1.94469,-4.33387 -4.33388,-4.33387 z"
       fill="#cccccc"
       id="path9-1"
       style="fill:#e85b5b;fill-opacity:1;stroke-width:0.264583" /><path
       d="m -13.124307,83.756923 h -20.796252 c -2.68022,0 -4.86304,-2.180171 -4.86304,-4.863041 v -20.79625 c 0,-2.68023 2.18017,-4.86305 4.86304,-4.86305 h 20.796252 c 2.68023,0 4.8630498,2.18017 4.8630498,4.86305 v 20.79625 c 0,2.68022 -2.1801698,4.86304 -4.8630498,4.863041 z m -20.796252,-29.99317 c -2.38918,0 -4.33387,1.94469 -4.33387,4.33388 v 20.79625 c 0,2.38918 1.94469,4.33387 4.33387,4.33387 h 20.796252 c 2.38919,0 4.3338798,-1.944691 4.3338798,-4.33387 v -20.79625 c 0,-2.38919 -1.9446898,-4.33388 -4.3338798,-4.33388 z"
       fill="#cccccc"
       id="path10-2"
       style="fill:#777777;fill-opacity:1;stroke-width:0.264583" /><path
       d="m -13.124307,140.39627 h -20.796252 c -2.68022,0 -4.86304,-2.18017 -4.86304,-4.86304 v -20.79625 c 0,-2.68023 2.18017,-4.86304 4.86304,-4.86304 h 20.796252 c 2.68023,0 4.8630498,2.18016 4.8630498,4.86304 v 20.79625 c 0,2.68023 -2.1801698,4.86304 -4.8630498,4.86304 z M -33.920559,110.4031 c -2.38918,0 -4.33387,1.94469 -4.33387,4.33388 v 20.79625 c 0,2.38919 1.94469,4.33387 4.33387,4.33387 h 20.796252 c 2.38919,0 4.3338798,-1.94468 4.3338798,-4.33387 v -20.79625 c 0,-2.38919 -1.9446898,-4.33388 -4.3338798,-4.33388 z"
       fill="#cccccc"
       id="path11-7"
       style="fill:#777777;fill-opacity:1;stroke-width:0.264583" /><path
       d="m -58.283389,140.39627 h -20.79625 c -2.68023,0 -4.86304,-2.18017 -4.86304,-4.86304 v -20.79625 c 0,-2.68023 2.18017,-4.86304 4.86304,-4.86304 h 20.79625 c 2.68023,0 4.86304,2.18016 4.86304,4.86304 v 20.79625 c 0,2.68023 -2.18016,4.86304 -4.86304,4.86304 z m -20.79625,-29.99317 c -2.38919,0 -4.33387,1.94469 -4.33387,4.33388 v 20.79625 c 0,2.38919 1.94468,4.33387 4.33387,4.33387 h 20.79625 c 2.38919,0 4.33388,-1.94468 4.33388,-4.33387 v -20.79625 c 0,-2.38919 -1.94469,-4.33388 -4.33388,-4.33388 z"
       fill="#cccccc"
       id="path12-0"
       style="fill:#777777;fill-opacity:1;stroke-width:0.264583" /><circle
       cx="-54.566002"
       cy="111.22861"
       r="6.1674371"
       fill="#6c63ff"
       id="circle12"
       style="fill:#005aa0;stroke-width:0.264583" /><path
       d="m 32.034783,83.756923 h -20.79625 c -2.6802302,0 -4.8630402,-2.180171 -4.8630402,-4.863041 v -20.79625 c 0,-2.68023 2.18016,-4.86305 4.8630402,-4.86305 h 20.79625 c 2.68023,0 4.86304,2.18017 4.86304,4.86305 v 20.79625 c 0,2.68022 -2.18017,4.86304 -4.86304,4.863041 z m -20.79625,-29.99317 c -2.3891902,0 -4.3338802,1.94469 -4.3338802,4.33388 v 20.79625 c 0,2.38918 1.94469,4.33387 4.3338802,4.33387 h 20.79625 c 2.38918,0 4.33387,-1.944691 4.33387,-4.33387 v -20.79625 c 0,-2.38919 -1.94469,-4.33388 -4.33387,-4.33388 z"
       fill="#cccccc"
       id="path13-9"
       style="fill:#777777;fill-opacity:1;stroke-width:0.264583" /><circle
       cx="36.63324"
       cy="54.591915"
       r="6.1674371"
       fill="#6c63ff"
       id="circle13"
       style="fill:#005aa0;stroke-width:0.264583" /><path
       d="m -63.249619,90.106922 h -12.40631 c -0.97102,0 -1.75948,-0.788459 -1.75948,-1.75948 0,-0.97102 0.78846,-1.759479 1.75948,-1.759479 h 12.40631 c 0.97102,0 1.75948,0.788459 1.75948,1.759479 0,0.971021 -0.78846,1.75948 -1.75948,1.75948 z"
       fill="#e6e6e6"
       id="path14-3"
       style="fill:#e85b5b;fill-opacity:1;stroke-width:0.264583" /><path
       d="m -17.320597,90.106922 h -12.40631 c -0.971022,0 -1.759482,-0.788459 -1.759482,-1.75948 0,-0.97102 0.78846,-1.759479 1.759482,-1.759479 h 12.40631 c 0.97102,0 1.75948,0.788459 1.75948,1.759479 0,0.971021 -0.78846,1.75948 -1.75948,1.75948 z"
       fill="#e6e6e6"
       id="path15-6"
       style="fill:#777777;fill-opacity:1;stroke-width:0.264583" /><path
       d="m 28.611073,90.106922 h -12.40631 c -0.97102,0 -1.75948,-0.788459 -1.75948,-1.75948 0,-0.97102 0.78846,-1.759479 1.75948,-1.759479 h 12.40631 c 0.97102,0 1.75948,0.788459 1.75948,1.759479 0,0.971021 -0.78846,1.75948 -1.75948,1.75948 z"
       fill="#e6e6e6"
       id="path16-0"
       style="fill:#777777;fill-opacity:1;stroke-width:0.264583" /><path
       d="m 32.034783,140.92544 h -20.79625 c -2.6802302,0 -4.8630402,-2.18017 -4.8630402,-4.86304 v -20.79625 c 0,-2.68023 2.18016,-4.86305 4.8630402,-4.86305 h 20.79625 c 2.68023,0 4.86304,2.18017 4.86304,4.86305 v 20.79625 c 0,2.68022 -2.18017,4.86304 -4.86304,4.86304 z m -20.79625,-29.99317 c -2.3891902,0 -4.3338802,1.94469 -4.3338802,4.33388 v 20.79625 c 0,2.38918 1.94469,4.33387 4.3338802,4.33387 h 20.79625 c 2.38918,0 4.33387,-1.94469 4.33387,-4.33387 v -20.79625 c 0,-2.38919 -1.94469,-4.33388 -4.33387,-4.33388 z"
       fill="#cccccc"
       id="path17-6"
       style="fill:#777777;fill-opacity:1;stroke-width:0.264583" /><path
       d="m 28.611073,147.27279 h -12.40631 c -0.97102,0 -1.75948,-0.78846 -1.75948,-1.75948 0,-0.97102 0.78846,-1.75948 1.75948,-1.75948 h 12.40631 c 0.97102,0 1.75948,0.78846 1.75948,1.75948 0,0.97102 -0.78846,1.75948 -1.75948,1.75948 z"
       fill="#e6e6e6"
       id="path18-2"
       style="fill:#777777;fill-opacity:1;stroke-width:0.264583" /><path
       d="M 77.196508,83.756923 H 56.400263 c -2.68023,0 -4.86305,-2.180171 -4.86305,-4.863041 v -20.79625 c 0,-2.68023 2.18017,-4.86305 4.86305,-4.86305 h 20.796245 c 2.68023,0 4.863042,2.18017 4.863042,4.86305 v 20.79625 c 0,2.68022 -2.180167,4.86304 -4.863042,4.863041 z M 56.400263,53.763753 c -2.38919,0 -4.33388,1.94469 -4.33388,4.33388 v 20.79625 c 0,2.38918 1.94469,4.33387 4.33388,4.33387 h 20.796245 c 2.389188,0 4.333875,-1.944691 4.333875,-4.33387 v -20.79625 c 0,-2.38919 -1.944687,-4.33388 -4.333875,-4.33388 z"
       fill="#cccccc"
       id="path19-6"
       style="fill:#777777;fill-opacity:1;stroke-width:0.264583" /><path
       d="M 73.770154,90.106922 H 61.363842 c -0.971021,0 -1.759479,-0.788459 -1.759479,-1.75948 0,-0.97102 0.788458,-1.759479 1.759479,-1.759479 h 12.406312 c 0.971021,0 1.759479,0.788459 1.759479,1.759479 0,0.971021 -0.788458,1.75948 -1.759479,1.75948 z"
       fill="#e6e6e6"
       id="path20-1"
       style="fill:#777777;fill-opacity:1;stroke-width:0.264583" /><path
       d="m -63.249619,146.74362 h -12.40631 c -0.97102,0 -1.75948,-0.78845 -1.75948,-1.75947 0,-0.97103 0.78846,-1.75948 1.75948,-1.75948 h 12.40631 c 0.97102,0 1.75948,0.78845 1.75948,1.75948 0,0.97102 -0.78846,1.75947 -1.75948,1.75947 z"
       fill="#e6e6e6"
       id="path21-8"
       style="fill:#777777;fill-opacity:1;stroke-width:0.264583" /><path
       d="m -17.320597,146.74362 h -12.40631 c -0.971022,0 -1.759482,-0.78845 -1.759482,-1.75947 0,-0.97103 0.78846,-1.75948 1.759482,-1.75948 h 12.40631 c 0.97102,0 1.75948,0.78845 1.75948,1.75948 0,0.97102 -0.78846,1.75947 -1.75948,1.75947 z"
       fill="#e6e6e6"
       id="path22"
       style="fill:#777777;fill-opacity:1;stroke-width:0.264583" /><g
       id="g24"
       transform="matrix(0.26458333,0,0,0.26458333,-83.942679,27.710233)"
       style="fill:#777777;fill-opacity:1"><circle
         cx="297.73999"
         cy="513.91998"
         r="5.7199998"
         fill="#6c63ff"
         id="circle22"
         style="fill:#005aa0;fill-opacity:1" /><circle
         cx="314.70001"
         cy="513.91998"
         r="5.7199998"
         fill="#e6e6e6"
         id="circle23"
         style="fill:#777777;fill-opacity:1" /><circle
         cx="331.66"
         cy="513.91998"
         r="5.7199998"
         fill="#e6e6e6"
         id="circle24"
         style="fill:#777777;fill-opacity:1" /></g><path
       style="fill:none;stroke:#005aa0;stroke-width:2;stroke-linecap:butt;stroke-linejoin:miter;stroke-dasharray:none;stroke-opacity:1;marker-end:"
       d="m 13.968271,201.34769 c 5.83863,1.26983 11.677259,2.53966 18.503539,2.40696 2.446789,-0.0476 6.398815,-0.48558 8.807626,-0.91932 7.821104,-1.40831 16.672956,-4.28035 25.524813,-7.15239"
       id="path45-9"
       inkscape:path-effect="#path-effect45-3;#path-effect49-7"
       inkscape:original-d="m 13.968271,201.34769 c 0,0 14.119812,3.07089 21.17972,4.60633 10.552089,-3.4237 21.10417,-6.84739 31.656258,-10.27108"
       sodipodi:nodetypes="ccc"
       transform="translate(5.9093309,-70.029547)" /><path
       style="fill:none;stroke:#005aa0;stroke-width:2;stroke-linecap:butt;stroke-linejoin:miter;stroke-dasharray:none;stroke-opacity:1;marker-end:"
       d="m 37.623769,91.044486 c -1.67815,1.949907 -3.3563,3.899814 -5.031804,5.259362 -1.868636,1.516259 -6.080891,1.667675 -7.995247,0.219374 -1.631265,-1.234129 -3.260037,-3.024689 -4.888809,-4.81525"
       id="path45-9-1"
       inkscape:path-effect="#path-effect45-3-7;#path-effect49-7-3"
       inkscape:original-d="m 37.623769,91.044486 c 0,0 -6.002219,6.974209 -9.003328,10.461314 -2.970845,-3.265943 -5.941688,-6.531885 -8.912532,-9.797828"
       sodipodi:nodetypes="ccc"
       transform="translate(18.433554,-5.120009)" /><text
       xml:space="preserve"
       style="font-style:normal;font-variant:normal;font-weight:normal;font-stretch:normal;font-size:5.64444px;line-height:0.449099px;font-family:Courier;-inkscape-font-specification:'Courier, Normal';font-variant-ligatures:normal;font-variant-caps:normal;font-variant-numeric:normal;font-variant-east-asian:normal;letter-spacing:-0.00529167px;stroke-width:0.264583"
       x="54.979664"
       y="62.167706"
       id="text49"><tspan
         sodipodi:role="line"
         id="tspan49"
         style="font-style:normal;font-variant:normal;font-weight:normal;font-stretch:normal;font-size:5.64444px;line-height:0.449099px;font-family:Courier;-inkscape-font-specification:'Courier, Normal';font-variant-ligatures:normal;font-variant-caps:normal;font-variant-numeric:normal;font-variant-east-asian:normal;stroke-width:0.264583"
         x="54.979664"
         y="62.167706">Testing</tspan></text><text
       xml:space="preserve"
       style="font-style:normal;font-variant:normal;font-weight:normal;font-stretch:normal;font-size:5.64444px;line-height:0.449099px;font-family:Courier;-inkscape-font-specification:'Courier, Normal';font-variant-ligatures:normal;font-variant-caps:normal;font-variant-numeric:normal;font-variant-east-asian:normal;letter-spacing:-0.00529167px;stroke-width:0.264583"
       x="8.7331381"
       y="62.167706"
       id="text49-0"><tspan
         sodipodi:role="line"
         id="tspan49-0"
         style="font-style:normal;font-variant:normal;font-weight:normal;font-stretch:normal;font-size:5.64444px;line-height:0.449099px;font-family:Courier;-inkscape-font-specification:'Courier, Normal';font-variant-ligatures:normal;font-variant-caps:normal;font-variant-numeric:normal;font-variant-east-asian:normal;stroke-width:0.264583"
         x="8.7331381"
         y="62.167706">Logging</tspan></text><text
       xml:space="preserve"
       style="font-style:normal;font-variant:normal;font-weight:normal;font-stretch:normal;font-size:5.64444px;line-height:0.449099px;font-family:Courier;-inkscape-font-specification:'Courier, Normal';font-variant-ligatures:normal;font-variant-caps:normal;font-variant-numeric:normal;font-variant-east-asian:normal;letter-spacing:-0.00529167px;stroke-width:0.264583"
       x="-32.168762"
       y="62.167706"
       id="text49-0-0"><tspan
         sodipodi:role="line"
         id="tspan49-0-5"
         style="font-style:normal;font-variant:normal;font-weight:normal;font-stretch:normal;font-size:5.64444px;line-height:0.449099px;font-family:Courier;-inkscape-font-specification:'Courier, Normal';font-variant-ligatures:normal;font-variant-caps:normal;font-variant-numeric:normal;font-variant-east-asian:normal;stroke-width:0.264583"
         x="-32.168762"
         y="62.167706">CI/CD</tspan></text><text
       xml:space="preserve"
       style="font-style:normal;font-variant:normal;font-weight:normal;font-stretch:normal;font-size:5.64444px;line-height:0.449099px;font-family:Courier;-inkscape-font-specification:'Courier, Normal';font-variant-ligatures:normal;font-variant-caps:normal;font-variant-numeric:normal;font-variant-east-asian:normal;letter-spacing:-0.00529167px;stroke-width:0.264583"
       x="-80.593269"
       y="61.638538"
       id="text49-0-0-3"><tspan
         sodipodi:role="line"
         id="tspan49-0-5-4"
         style="font-style:normal;font-variant:normal;font-weight:normal;font-stretch:normal;font-size:5.64444px;line-height:0.449099px;font-family:Courier;-inkscape-font-specification:'Courier, Normal';font-variant-ligatures:normal;font-variant-caps:normal;font-variant-numeric:normal;font-variant-east-asian:normal;stroke-width:0.264583"
         x="-80.593269"
         y="61.638538">License</tspan></text><text
       xml:space="preserve"
       style="font-style:normal;font-variant:normal;font-weight:normal;font-stretch:normal;font-size:5.64444px;line-height:0.449099px;font-family:Courier;-inkscape-font-specification:'Courier, Normal';font-variant-ligatures:normal;font-variant-caps:normal;font-variant-numeric:normal;font-variant-east-asian:normal;letter-spacing:-0.00529167px;stroke-width:0.264583"
       x="-76.569611"
       y="118.67783"
       id="text49-0-0-3-8"><tspan
         sodipodi:role="line"
         id="tspan49-0-5-4-1"
         style="font-style:normal;font-variant:normal;font-weight:normal;font-stretch:normal;font-size:5.64444px;line-height:0.449099px;font-family:Courier;-inkscape-font-specification:'Courier, Normal';font-variant-ligatures:normal;font-variant-caps:normal;font-variant-numeric:normal;font-variant-east-asian:normal;stroke-width:0.264583"
         x="-76.569611"
         y="118.67783">Docu</tspan></text><text
       xml:space="preserve"
       style="font-style:normal;font-variant:normal;font-weight:normal;font-stretch:normal;font-size:5.64444px;line-height:0.449099px;font-family:Courier;-inkscape-font-specification:'Courier, Normal';font-variant-ligatures:normal;font-variant-caps:normal;font-variant-numeric:normal;font-variant-east-asian:normal;letter-spacing:-0.00529167px;stroke-width:0.264583"
       x="-35.197819"
       y="117.32735"
       id="text49-0-0-3-8-1"><tspan
         sodipodi:role="line"
         id="tspan49-0-5-4-1-1"
         style="font-style:normal;font-variant:normal;font-weight:normal;font-stretch:normal;font-size:5.64444px;line-height:0.449099px;font-family:Courier;-inkscape-font-specification:'Courier, Normal';font-variant-ligatures:normal;font-variant-caps:normal;font-variant-numeric:normal;font-variant-east-asian:normal;stroke-width:0.264583"
         x="-35.197819"
         y="117.32735">Python?</tspan></text><path
       style="fill:none;stroke:#005aa0;stroke-width:2;stroke-linecap:butt;stroke-linejoin:miter;stroke-dasharray:2, 2;stroke-dashoffset:0;stroke-opacity:1;marker-end:"
       d="m 13.968271,201.34769 c 8.766573,11.77905 17.533145,23.55811 30.845025,30.13897 2.193711,1.08448 5.906089,2.5123 8.253457,3.20478 15.202945,4.48492 34.993062,3.72376 54.783187,2.9626"
       id="path45-9-6"
       inkscape:path-effect="#path-effect45-3-8;#path-effect49-7-5"
       inkscape:original-d="m 13.968271,201.34769 c 0,0 19.254442,25.8709 28.881666,38.80635 21.666671,-0.83334 43.333332,-1.66667 65.000003,-2.5"
       sodipodi:nodetypes="ccc"
       transform="translate(-36.792615,-76.729563)" /><g
       id="g53"
       transform="translate(-72.107533,33.424979)"
       style="fill:#005aa0;stroke:#005aa0;stroke-opacity:1"><path
         style="fill:#005aa0;stroke:#005aa0;stroke-width:2;stroke-linecap:round;stroke-linejoin:round;stroke-miterlimit:10;stroke-dasharray:none;stroke-opacity:1"
         id="path52"
         d="m 88.993416,71.183307 c 0.484682,-0.61643 0.845931,-1.69954 1.626854,-2.0115 0.142264,-0.0568 0.302641,-0.0478 0.453962,-0.0716 -4.403754,0.0205 -2.249226,-0.12317 -1.26609,0.34624 0.537713,0.25674 0.892088,0.61315 1.257382,1.06898 0.599255,0.83204 0.926875,1.79454 0.961186,2.81538 0.01352,1.08125 -0.527677,1.9656 -1.154385,2.80053 -0.5456,0.76869 -1.247928,1.39858 -1.793491,2.16812 -0.383307,0.69952 -0.697246,1.40537 -0.857194,2.18842 -0.189744,0.84404 0.22257,1.54664 0.735634,2.18079 0.577117,0.59484 1.306235,1.00743 2.007267,1.43751 0.694735,0.39831 1.421278,0.70968 2.200314,0.89332 1.573102,0.18952 3.447063,0.60038 4.872816,-0.0997 0.625575,-0.24114 0.814533,-0.80837 0.933127,-1.41466 0.01339,-0.11212 0.02675,-0.22424 0.04013,-0.33636 0,0 -2.910765,-0.037 -2.910765,-0.037 v 0 c -0.01429,0.10424 -0.02857,0.20847 -0.04284,0.3127 -0.127239,0.55579 -0.343546,0.94565 -0.917917,1.12692 -0.991018,0.28725 -2.508599,0.12307 1.997284,0.14241 0.121854,5.3e-4 -0.243551,-0.009 -0.365175,-0.0169 -0.359847,-0.0223 -0.37248,-0.0292 -0.7308,-0.0726 -0.781254,-0.14062 -1.498918,-0.41727 -2.196598,-0.79673 -0.692779,-0.40053 -1.382932,-0.82474 -1.994823,-1.3418 -0.520536,-0.59075 -0.89417,-1.0959 -0.722384,-1.91798 0.158197,-0.73899 0.45711,-1.41705 0.843608,-2.06677 0.555601,-0.74992 1.240047,-1.3916 1.76099,-2.16855 0.642702,-0.89743 1.206992,-1.85068 1.182912,-2.9927 -0.04595,-1.07507 -0.368945,-2.0999 -0.984109,-2.99014 -0.113959,-0.15885 -0.212548,-0.32995 -0.341882,-0.47656 -1.419397,-1.60899 -3.371754,-1.18511 -5.37532,-1.12756 -0.154524,0.0603 -0.320942,0.0961 -0.463579,0.18077 -0.78696,0.46698 -1.094758,1.45593 -1.658911,2.12628 z" /><path
         style="fill:#005aa0;stroke:#005aa0;stroke-width:2;stroke-linecap:round;stroke-linejoin:round;stroke-miterlimit:10;stroke-dasharray:none;stroke-opacity:1"
         id="path53"
         d="m 96.662454,89.905237 c 0.09187,-5.3e-4 0.183734,-0.001 0.275603,-0.002 0.241686,-8e-4 0.966737,-0.004 0.725067,-0.001 -4.36295,0.0531 -2.914494,-0.27977 -1.997906,0.22536 0.411292,0.35955 0.353555,0.84417 0.249481,1.33039 0,0 2.929842,0.0514 2.929842,0.0514 v 0 c 0.08557,-0.59629 0.142971,-1.16456 -0.274687,-1.66015 -1.285021,-1.09653 -3.220498,-0.26546 -4.808329,-0.40361 z" /></g><path
       style="fill:none;fill-opacity:1;stroke:#005aa0;stroke-width:2;stroke-linecap:butt;stroke-linejoin:miter;stroke-dasharray:4, 2;stroke-dashoffset:0;stroke-opacity:1;marker-end:"
       d="m 76.822273,-78.250517 c 2.06816,4.822491 4.136319,9.64498 9.267025,14.117734 5.130706,4.472753 13.323954,8.595766 21.517202,12.718779"
       id="path45-9-1-5"
       sodipodi:nodetypes="ccc"
       transform="translate(-106.54918,164.83848)" /><path
       style="fill:#005aa0;fill-opacity:1;stroke:none;stroke-width:0.264583px;stroke-linecap:butt;stroke-linejoin:miter;stroke-opacity:1"
       d="m 74.807324,170.92449 -11.250003,3.75 v -7.5 z"
       id="path25"
       inkscape:path-effect="#path-effect26"
       inkscape:original-d="m 74.807324,170.92449 -11.250003,3.75 v -7.5 z"
       transform="rotate(-6.3793672,-22.709212,103.92851)"
       sodipodi:nodetypes="cccc" /><path
       style="fill:#005aa0;fill-opacity:1;stroke:none;stroke-width:0.264583px;stroke-linecap:butt;stroke-linejoin:miter;stroke-opacity:1"
       d="m 74.807324,170.92449 -11.250003,3.75 v -7.5 z"
       id="path25-36"
       inkscape:path-effect="#path-effect26-0"
       inkscape:original-d="m 74.807324,170.92449 -11.250003,3.75 v -7.5 z"
       transform="rotate(26.435326,155.40301,7.5422796)"
       sodipodi:nodetypes="cccc" /><path
       style="fill:#005aa0;fill-opacity:1;stroke:none;stroke-width:0.264583px;stroke-linecap:butt;stroke-linejoin:miter;stroke-opacity:1"
       d="m 74.807324,170.92449 -11.250003,3.75 v -7.5 z"
       id="path25-37"
       inkscape:path-effect="#path-effect26-20"
       inkscape:original-d="m 74.807324,170.92449 -11.250003,3.75 v -7.5 z"
       transform="rotate(-19.933229,-60.732768,127.08447)"
       sodipodi:nodetypes="cccc" /><path
       style="fill:#005aa0;fill-opacity:1;stroke:none;stroke-width:0.264583px;stroke-linecap:butt;stroke-linejoin:miter;stroke-opacity:1"
       d="m 74.807324,170.92449 -11.250003,3.75 v -7.5 z"
       id="path25-36-8"
       inkscape:path-effect="#path-effect26-0-2"
       inkscape:original-d="m 74.807324,170.92449 -11.250003,3.75 v -7.5 z"
       transform="rotate(-116.55452,-8.343323,158.03041)"
       sodipodi:nodetypes="cccc" /><path
       style="fill:#005aa0;fill-opacity:1;stroke:none;stroke-width:0.264583px;stroke-linecap:butt;stroke-linejoin:miter;stroke-opacity:1"
       d="m 74.807324,170.92449 -11.250003,3.75 v -7.5 z"
       id="path25-36-8-1"
       inkscape:path-effect="#path-effect26-0-2-3"
       inkscape:original-d="m 74.807324,170.92449 -11.250003,3.75 v -7.5 z"
       transform="rotate(-132.10041,32.516043,134.63381)"
       sodipodi:nodetypes="cccc"
       inkscape:transform-center-x="0.28096158"
       inkscape:transform-center-y="0.14136649" /><path
       style="fill:#005aa0;fill-opacity:1;stroke:none;stroke-width:0.264583px;stroke-linecap:butt;stroke-linejoin:miter;stroke-opacity:1"
       d="m 74.807324,170.92449 -11.250003,3.75 v -7.5 z"
       id="path25-36-8-4"
       inkscape:path-effect="#path-effect26-0-2-31"
       inkscape:original-d="m 74.807324,170.92449 -11.250003,3.75 v -7.5 z"
       transform="rotate(-53.130266,-24.692387,136.79945)"
       sodipodi:nodetypes="cccc" /></g></svg>
